<svg xmlns="http://www.w3.org/2000/svg" viewBox="0 0 512 360" fill="none" stroke="#07C160" stroke-width="2" stroke-linecap="round" stroke-linejoin="round">
  <path d="M102 172c15-35 49-66 98-78 48-12 121-12 178 2 61 15 104 43 116 84 9 30 4 63-10 95"/>
  <path d="M112 167c-17-2-30-11-38-24-9-15-5-34 10-47 16-14 38-14 56-3 12 8 20 20 22 34 1 13-4 28-14 40z"/>
  <circle cx="140" cy="144" r="4" fill="none"/>
  <path d="M115 161c9 5 19 7 28 5m-10-45l-21-18m37 17l12-28m15 26c7-12 17-20 30-24"/>
  <path d="M215 206c-11 30-23 62-35 94-8 20-18 36-32 49-8 7-18 13-30 16 7-18 13-36 18-55m212-77c1 38-6 75-18 108-4 12-11 24-21 34-11 11-26 18-43 19 9-17 16-35 21-54"/>
  <path d="M175 218c46-8 100-8 155 1 38 6 71 17 95 35m-192-37c-10 18-19 36-26 54m85-54c-7 15-14 31-20 46m83-32c4 17 10 35 17 53"/>
  <path d="M211 273c-7 21-14 43-19 65m91-64c3 20 5 42 4 63m73-63c-2 22-7 44-13 65m50-45c0 16-2 32-5 46"/>
  <path d="M338 205c8 7 16 16 22 26m-9 27c5 8 9 17 12 26"/>
  <path d="M429 185c13 2 24 7 34 14 13 10 22 25 24 40 1 11-1 23-7 32m-62-74c11-5 20-6 31-5"/>
</svg>
