<svg xmlns="http://www.w3.org/2000/svg" viewBox="0 0 512 360" fill="none" stroke="#07C160" stroke-width="2" stroke-linecap="round" stroke-linejoin="round">
  <path d="M99 150c12-30 35-62 67-84 12-8 34-12 45-8l-23 15c26-5 51-2 72 8l-27 11c44-2 86 8 127 28 40 20 67 49 70 83 2 30-6 59-18 84"/>
  <path d="M140 139c-6 10-18 19-31 24-9 3-18-1-23-10-5-10 1-24 11-34 8-8 19-10 29-8 7 1 12 8 14 16z"/>
  <circle cx="132" cy="126" r="4" fill="none"/>
  <path d="M108 145c8 5 16 6 24 4"/>
  <path d="M171 110l-22-32m35 28l13-34m17 34c15-10 24-20 33-35m-20 39c14-4 28-4 41 0"/>
  <path d="M167 166c48-7 98-8 148 2 39 8 72 22 93 46m-192-48c-11 32-22 66-35 100-9 23-21 39-39 52-10 7-21 12-33 12 8-20 15-41 20-63m237-38c-3 35-11 76-26 110-6 12-14 23-24 31-10 8-24 13-38 12 14-24 23-52 28-82"/>
  <path d="M264 186c-10 16-19 33-27 51m84-42c4 17 9 35 15 52m-176-1c-10 9-18 20-23 34m170-22c-8 15-15 31-20 48"/>
  <path d="M214 250c-8 26-16 51-24 76m83-76c5 24 9 50 11 75m83-66c-2 27-8 53-17 78m54-60c-1 18-3 36-8 53"/>
  <path d="M357 175c35 2 67 8 94 21 25 13 42 33 45 57 2 12 0 25-6 35m-76-113c15-8 28-10 43-8m-60 16c14 6 25 14 33 24m-27 73c13 3 28 2 41-3"/>
</svg>
